<svg aria-hidden="true" style="position: absolute; width: 0; height: 0; overflow: hidden;" version="1.1" xmlns="http://www.w3.org/2000/svg" xmlns:xlink="http://www.w3.org/1999/xlink">
<defs>
<symbol id="icon-moon" viewBox="0 0 32 32">
<path d="M28.707 21.24c-0.213-0.36-0.813-0.92-2.307-0.653-0.827 0.147-1.667 0.213-2.507 0.173-3.107-0.133-5.92-1.56-7.88-3.76-1.733-1.933-2.8-4.453-2.813-7.173 0-1.52 0.293-2.987 0.893-4.373 0.587-1.347 0.173-2.053-0.12-2.347-0.307-0.307-1.027-0.733-2.44-0.147-5.453 2.293-8.827 7.76-8.427 13.613 0.4 5.507 4.267 10.213 9.387 11.987 1.227 0.427 2.52 0.68 3.853 0.733 0.213 0.013 0.427 0.027 0.64 0.027 4.467 0 8.653-2.107 11.293-5.693 0.893-1.24 0.653-2.027 0.427-2.387z"></path>
</symbol>
<symbol id="icon-note-2" viewBox="0 0 32 32">
<path d="M16.903 26.609c0.366 0.085 0.4 0.565 0.043 0.684l-2.107 0.693c-5.293 1.707-8.080 0.28-9.8-5.013l-1.707-5.267c-1.707-5.293-0.293-8.093 5-9.8l0.699-0.231c0.537-0.178 1.060 0.361 0.907 0.906-0.076 0.27-0.148 0.552-0.219 0.846l-1.307 5.587c-1.467 6.28 0.68 9.747 6.96 11.24l1.53 0.356z"></path>
<path d="M22.894 4.28l-2.227-0.52c-4.453-1.053-7.107-0.187-8.667 3.040-0.4 0.813-0.72 1.8-0.987 2.933l-1.307 5.587c-1.307 5.573 0.413 8.32 5.973 9.64l2.24 0.533c0.773 0.187 1.493 0.307 2.16 0.36 4.16 0.4 6.373-1.547 7.493-6.36l1.307-5.573c1.307-5.573-0.4-8.333-5.987-9.64zM20.387 17.773c-0.12 0.453-0.52 0.747-0.973 0.747-0.080 0-0.16-0.013-0.253-0.027l-3.88-0.987c-0.533-0.133-0.853-0.68-0.72-1.213s0.68-0.853 1.213-0.72l3.88 0.987c0.547 0.133 0.867 0.68 0.733 1.213zM24.294 13.267c-0.12 0.453-0.52 0.747-0.973 0.747-0.080 0-0.16-0.013-0.253-0.027l-6.467-1.64c-0.533-0.133-0.853-0.68-0.72-1.213s0.68-0.853 1.213-0.72l6.467 1.64c0.547 0.12 0.867 0.667 0.733 1.213z"></path>
</symbol>
<symbol id="icon-search-normal" viewBox="0 0 32 32">
<path d="M14.68 26.693c6.635 0 12.013-5.379 12.013-12.013s-5.379-12.013-12.013-12.013c-6.635 0-12.013 5.379-12.013 12.013s5.379 12.013 12.013 12.013z"></path>
<path d="M29.32 25.267c-0.44-0.813-1.373-1.267-2.627-1.267-0.947 0-1.76 0.387-2.24 1.053s-0.587 1.56-0.293 2.453c0.573 1.733 1.573 2.12 2.12 2.187 0.080 0.013 0.16 0.013 0.253 0.013 0.587 0 1.493-0.253 2.373-1.573 0.707-1.027 0.84-2.053 0.413-2.867z"></path>
</symbol>
<symbol id="icon-profile-2user" viewBox="0 0 32 32">
<path d="M12 2.667c-3.493 0-6.333 2.84-6.333 6.333 0 3.427 2.68 6.2 6.173 6.32 0.107-0.013 0.213-0.013 0.293 0 0.027 0 0.040 0 0.067 0 0.013 0 0.013 0 0.027 0 3.413-0.12 6.093-2.893 6.107-6.32 0-3.493-2.84-6.333-6.333-6.333z"></path>
<path d="M18.773 18.867c-3.72-2.48-9.787-2.48-13.533 0-1.693 1.133-2.627 2.667-2.627 4.307s0.933 3.16 2.613 4.28c1.867 1.253 4.32 1.88 6.773 1.88s4.907-0.627 6.773-1.88c1.68-1.133 2.613-2.653 2.613-4.307-0.013-1.64-0.933-3.16-2.613-4.28z"></path>
<path d="M26.653 9.787c0.213 2.587-1.627 4.853-4.173 5.16-0.013 0-0.013 0-0.027 0h-0.040c-0.080 0-0.16 0-0.227 0.027-1.293 0.067-2.48-0.347-3.373-1.107 1.373-1.227 2.16-3.067 2-5.067-0.093-1.080-0.467-2.067-1.027-2.907 0.507-0.253 1.093-0.413 1.693-0.467 2.613-0.227 4.947 1.72 5.173 4.36z"></path>
<path d="M29.32 22.12c-0.107 1.293-0.933 2.413-2.32 3.173-1.333 0.733-3.013 1.080-4.68 1.040 0.96-0.867 1.52-1.947 1.627-3.093 0.133-1.653-0.653-3.24-2.227-4.507-0.893-0.707-1.933-1.267-3.067-1.68 2.947-0.853 6.653-0.28 8.933 1.56 1.227 0.987 1.853 2.227 1.733 3.507z"></path>
</symbol>
<symbol id="icon-microscope" viewBox="0 0 32 32">
<path d="M19.787 14.533l7.547-5.053c0.76-0.507 0.96-1.547 0.453-2.293l-2.427-3.613c-0.507-0.76-1.547-0.96-2.293-0.453l-7.547 5.053 4.267 6.36z"></path>
<path d="M19.36 13.893l-6.373 4.267-0.213-0.32-3.2-4.773 6.373-4.267 3.413 5.093z"></path>
<path d="M7.52 21.36l5.267-3.52-2.987-4.453-5.267 3.52c-0.613 0.413-0.773 1.24-0.36 1.853l1.507 2.24c0.4 0.613 1.227 0.773 1.84 0.36z"></path>
<path d="M22.080 29.080c-0.133 0.053-0.28 0.093-0.413 0.093-0.387 0-0.747-0.227-0.92-0.6l-4.973-10.987-5.040 11c-0.173 0.36-0.533 0.587-0.92 0.587-0.133 0-0.28-0.040-0.413-0.093-0.493-0.24-0.72-0.827-0.493-1.333l4.547-9.893 3.56-2.387 5.56 12.293c0.227 0.493 0 1.093-0.493 1.32z"></path>
</symbol>
<symbol id="icon-star" viewBox="0 0 32 32">
<path d="M17.236 5.466l1.253 2.507c0.169 0.347 0.622 0.676 1.004 0.747l2.267 0.373c1.449 0.24 1.787 1.289 0.747 2.338l-1.769 1.769c-0.293 0.293-0.462 0.871-0.364 1.289l0.507 2.187c0.4 1.724-0.524 2.4-2.044 1.493l-2.124-1.262c-0.382-0.231-1.022-0.231-1.404 0l-2.124 1.262c-1.52 0.898-2.444 0.231-2.044-1.493l0.507-2.187c0.080-0.427-0.089-1.004-0.382-1.298l-1.769-1.769c-1.040-1.040-0.702-2.089 0.747-2.338l2.267-0.373c0.382-0.062 0.836-0.4 1.004-0.747l1.253-2.507c0.684-1.351 1.787-1.351 2.471 0.009z"></path>
</symbol>
<symbol id="icon-graph" viewBox="0 0 32 32">
<path d="M28.894 9.267c-0.853-2.893-3.267-5.307-6.16-6.16-2.2-0.64-3.72-0.587-4.773 0.2-1.267 0.947-1.413 2.653-1.413 3.867v3.32c0 3.28 1.493 4.947 4.427 4.947h3.827c1.2 0 2.92-0.147 3.867-1.413 0.813-1.040 0.88-2.56 0.227-4.76z"></path>
<path d="M25.213 17.813c-0.347-0.4-0.853-0.627-1.373-0.627h-4.773c-2.347 0-4.253-1.907-4.253-4.253v-4.773c0-0.52-0.227-1.027-0.627-1.373-0.387-0.347-0.92-0.507-1.427-0.44-3.133 0.4-6.013 2.12-7.893 4.707-1.893 2.6-2.587 5.773-1.987 8.947 0.867 4.587 4.533 8.253 9.133 9.12 0.733 0.147 1.467 0.213 2.2 0.213 2.413 0 4.747-0.747 6.733-2.2 2.587-1.88 4.307-4.76 4.707-7.893 0.067-0.52-0.093-1.040-0.44-1.427z"></path>
</symbol>
<symbol id="icon-sms-edit" viewBox="0 0 32 32">
<path d="M22.667 4h-13.333c-4 0-6.667 2-6.667 6.667v9.333c0 4.667 2.667 6.667 6.667 6.667h4.76c0.787 0 1.427-0.693 1.32-1.48-0.133-0.947-0.107-1.933 0.093-2.947 0.707-3.467 3.56-6.227 7.053-6.8 1.747-0.28 3.413-0.040 4.88 0.6 0.893 0.387 1.893-0.227 1.893-1.2v-4.173c0-4.667-2.667-6.667-6.667-6.667zM23.293 11.453l-4.173 3.333c-0.88 0.707-2 1.053-3.12 1.053s-2.253-0.347-3.12-1.053l-4.173-3.333c-0.427-0.347-0.493-0.973-0.16-1.413 0.347-0.427 0.973-0.507 1.4-0.16l4.173 3.333c1.013 0.813 2.733 0.813 3.747 0l4.173-3.333c0.427-0.347 1.067-0.28 1.4 0.16 0.347 0.44 0.28 1.067-0.147 1.413z"></path>
<path d="M24 17.333c-3.68 0-6.667 2.973-6.667 6.667 0 3.68 2.987 6.667 6.667 6.667 3.693 0 6.667-2.987 6.667-6.667 0-3.693-2.973-6.667-6.667-6.667zM26.733 23.4l-0.493 0.48-2.907 2.92c-0.133 0.12-0.387 0.253-0.573 0.28l-1.307 0.187c-0.467 0.067-0.8-0.267-0.733-0.733l0.187-1.307c0.027-0.187 0.147-0.44 0.28-0.573l2.907-2.893 0.48-0.493c0.32-0.32 0.68-0.533 1.053-0.533 0.32 0 0.68 0.147 1.080 0.533 0.893 0.867 0.613 1.547 0.027 2.133z"></path>
</symbol>
<symbol id="icon-setting-2" viewBox="0 0 32 32">
<path d="M26.8 12.293c-2.413 0-3.4-1.707-2.2-3.8 0.693-1.213 0.28-2.76-0.933-3.453l-2.307-1.32c-1.053-0.627-2.413-0.253-3.040 0.8l-0.147 0.253c-1.2 2.093-3.173 2.093-4.387 0l-0.147-0.253c-0.6-1.053-1.96-1.427-3.013-0.8l-2.307 1.32c-1.213 0.693-1.627 2.253-0.933 3.467 1.213 2.080 0.227 3.787-2.187 3.787-1.387 0-2.533 1.133-2.533 2.533v2.347c0 1.387 1.133 2.533 2.533 2.533 2.413 0 3.4 1.707 2.187 3.8-0.693 1.213-0.28 2.76 0.933 3.453l2.307 1.32c1.053 0.627 2.413 0.253 3.040-0.8l0.147-0.253c1.2-2.093 3.173-2.093 4.387 0l0.147 0.253c0.627 1.053 1.987 1.427 3.040 0.8l2.307-1.32c1.213-0.693 1.627-2.253 0.933-3.453-1.213-2.093-0.227-3.8 2.187-3.8 1.387 0 2.533-1.133 2.533-2.533v-2.347c-0.013-1.387-1.147-2.533-2.547-2.533zM16 20.333c-2.387 0-4.333-1.947-4.333-4.333s1.947-4.333 4.333-4.333c2.387 0 4.333 1.947 4.333 4.333s-1.947 4.333-4.333 4.333z"></path>
</symbol>
<symbol id="icon-logout" viewBox="0 0 32 32">
<path d="M9.6 29.333h3.467c4.267 0 6.933-2.667 6.933-6.933v-5.4h-8.333c-0.547 0-1-0.453-1-1s0.453-1 1-1h8.333v-5.4c0-4.267-2.667-6.933-6.933-6.933h-3.453c-4.267 0-6.933 2.667-6.933 6.933v12.8c-0.013 4.267 2.653 6.933 6.92 6.933z"></path>
<path d="M25.92 17l-2.76 2.76c-0.2 0.2-0.293 0.453-0.293 0.707s0.093 0.52 0.293 0.707c0.387 0.387 1.027 0.387 1.413 0l4.467-4.467c0.387-0.387 0.387-1.027 0-1.413l-4.467-4.467c-0.387-0.387-1.027-0.387-1.413 0s-0.387 1.027 0 1.413l2.76 2.76h-5.92v2h5.92z"></path>
</symbol>
<symbol id="icon-setting-4" viewBox="0 0 32 32">
<path d="M28.4 10.107h-7.44c-0.52 0-0.933-0.413-0.933-0.933s0.413-0.933 0.933-0.933h7.44c0.52 0 0.933 0.413 0.933 0.933s-0.413 0.933-0.933 0.933z"></path>
<path d="M8.56 10.107h-4.96c-0.52 0-0.933-0.413-0.933-0.933s0.413-0.933 0.933-0.933h4.96c0.52 0 0.933 0.413 0.933 0.933s-0.427 0.933-0.933 0.933z"></path>
<path d="M13.52 14.44c2.909 0 5.267-2.358 5.267-5.267s-2.358-5.267-5.267-5.267c-2.909 0-5.267 2.358-5.267 5.267s2.358 5.267 5.267 5.267z"></path>
<path d="M28.4 23.747h-4.96c-0.52 0-0.933-0.413-0.933-0.933s0.413-0.933 0.933-0.933h4.96c0.52 0 0.933 0.413 0.933 0.933s-0.413 0.933-0.933 0.933z"></path>
<path d="M11.040 23.747h-7.44c-0.52 0-0.933-0.413-0.933-0.933s0.413-0.933 0.933-0.933h7.44c0.52 0 0.933 0.413 0.933 0.933s-0.427 0.933-0.933 0.933z"></path>
<path d="M18.48 28.093c2.909 0 5.267-2.358 5.267-5.267s-2.358-5.267-5.267-5.267c-2.909 0-5.267 2.358-5.267 5.267s2.358 5.267 5.267 5.267z"></path>
</symbol>
<symbol id="icon-location" viewBox="0 0 32 32">
<path d="M27.493 11.267c-1.4-6.16-6.773-8.933-11.493-8.933 0 0 0 0-0.013 0-4.707 0-10.093 2.76-11.493 8.92-1.56 6.88 2.653 12.707 6.467 16.373 1.413 1.36 3.227 2.040 5.040 2.040s3.627-0.68 5.027-2.040c3.813-3.667 8.027-9.48 6.467-16.36zM16 17.947c-2.32 0-4.2-1.88-4.2-4.2s1.88-4.2 4.2-4.2c2.32 0 4.2 1.88 4.2 4.2s-1.88 4.2-4.2 4.2z"></path>
</symbol>
<symbol id="icon-notification-bing" viewBox="0 0 32 32">
<path d="M26.92 18.747l-1.507-2.507c-0.333-0.547-0.627-1.6-0.627-2.24v-2.493c0-4.84-3.933-8.773-8.76-8.773-4.84 0.013-8.773 3.933-8.773 8.773v2.48c0 0.64-0.293 1.693-0.613 2.24l-1.507 2.507c-0.573 0.973-0.707 2.080-0.347 3.040 0.36 0.973 1.173 1.747 2.24 2.093 1.44 0.48 2.893 0.827 4.373 1.080 0.147 0.027 0.293 0.040 0.44 0.067 0.187 0.027 0.387 0.053 0.587 0.080 0.347 0.053 0.693 0.093 1.053 0.12 0.84 0.080 1.693 0.12 2.547 0.12 0.84 0 1.68-0.040 2.507-0.12 0.307-0.027 0.613-0.053 0.907-0.093 0.24-0.027 0.48-0.053 0.72-0.093 0.147-0.013 0.293-0.040 0.44-0.067 1.493-0.24 2.973-0.613 4.413-1.093 1.027-0.347 1.813-1.12 2.187-2.107 0.373-1 0.267-2.093-0.28-3.013zM17 13.333c0 0.56-0.453 1.013-1.013 1.013s-1.013-0.453-1.013-1.013v-4.133c0-0.56 0.453-1.013 1.013-1.013s1.013 0.453 1.013 1.013v4.133z"></path>
<path d="M19.773 26.68c-0.56 1.547-2.040 2.653-3.773 2.653-1.053 0-2.093-0.427-2.827-1.187-0.427-0.4-0.747-0.933-0.933-1.48 0.173 0.027 0.347 0.040 0.533 0.067 0.307 0.040 0.627 0.080 0.947 0.107 0.76 0.067 1.533 0.107 2.307 0.107 0.76 0 1.52-0.040 2.267-0.107 0.28-0.027 0.56-0.040 0.827-0.080 0.213-0.027 0.427-0.053 0.653-0.080z"></path>
</symbol>
<symbol id="icon-heart" viewBox="0 0 32 32">
<path d="M21.92 4.133c-2.413 0-4.573 1.173-5.92 2.973-1.347-1.8-3.507-2.973-5.92-2.973-4.093 0-7.413 3.333-7.413 7.453 0 1.587 0.253 3.053 0.693 4.413 2.107 6.667 8.6 10.653 11.813 11.747 0.453 0.16 1.2 0.16 1.653 0 3.213-1.093 9.707-5.080 11.813-11.747 0.44-1.36 0.693-2.827 0.693-4.413 0-4.12-3.32-7.453-7.413-7.453z"></path>
</symbol>
<symbol id="icon-Home-icon" viewBox="0 0 32 32">
<path d="M15.175 0.072c-0.775 0.256-0.625 0.113-7.71 7.185-3.727 3.721-6.866 6.91-6.985 7.085-0.475 0.707-0.613 1.782-0.344 2.595 0.406 1.207 1.369 1.92 2.751 2.032l0.494 0.044 0.019 5.102c0.019 5.002 0.025 5.109 0.15 5.446 0.469 1.238 1.251 2.001 2.395 2.339 0.294 0.088 0.763 0.1 3.345 0.1 2.889 0 3.014-0.006 3.214-0.125 0.113-0.069 0.256-0.213 0.325-0.325 0.119-0.2 0.125-0.325 0.125-4.177 0-2.708 0.025-4.052 0.069-4.221 0.106-0.375 0.4-0.757 0.732-0.951l0.294-0.175h3.952l0.306 0.188c0.344 0.213 0.669 0.694 0.738 1.075 0.019 0.131 0.038 1.989 0.038 4.133 0 4.221-0.012 4.058 0.344 4.39l0.169 0.156 3.008 0.019c2.013 0.012 3.12-0.006 3.339-0.050 0.863-0.181 1.863-0.944 2.257-1.72 0.438-0.875 0.413-0.519 0.438-6.134l0.019-5.078 0.513-0.044c1.257-0.106 2.082-0.657 2.601-1.72 0.219-0.463 0.225-0.481 0.225-1.251 0-0.775 0-0.788-0.238-1.282-0.238-0.5-0.244-0.506-7.097-7.36-6.859-6.86-6.859-6.86-7.36-7.097-0.475-0.225-0.538-0.238-1.188-0.25-0.444-0.013-0.775 0.013-0.938 0.069z"></path>
</symbol>
<symbol id="icon-search" viewBox="0 0 32 32">
<path d="M31.008 27.231l-7.58-6.447c-0.784-0.705-1.622-1.029-2.299-0.998 1.789-2.096 2.87-4.815 2.87-7.787 0-6.627-5.373-12-12-12s-12 5.373-12 12 5.373 12 12 12c2.972 0 5.691-1.081 7.787-2.87-0.031 0.677 0.293 1.515 0.998 2.299l6.447 7.58c1.104 1.226 2.907 1.33 4.007 0.23s0.997-2.903-0.23-4.007zM12 20c-4.418 0-8-3.582-8-8s3.582-8 8-8 8 3.582 8 8-3.582 8-8 8z"></path>
</symbol>
<symbol id="icon-logo" viewBox="0 0 37 32">
<path fill="#e5e5e5" style="fill: var(--color1, #e5e5e5)" d="M0 0h36.5v32h-36.5v-32z"></path>
<path fill="#f2f8fd" style="fill: var(--color2, #f2f8fd)" d="M-38.5-12.5h800v568.5h-800v-568.5z"></path>
<path fill="#18333e" style="fill: var(--color3, #18333e)" d="M18.677 0.026c-0.036 0.016-0.088 0.055-0.117 0.088-0.029 0.036-1.143 1.798-2.475 3.923-1.827 2.911-2.423 3.891-2.433 3.978-0.029 0.279 0.306 0.451 0.518 0.269 0.029-0.026 1.075-1.681 2.328-3.68 1.25-1.999 2.286-3.634 2.296-3.634 0.016 0 1.7 2.671 5.044 8.015 0.186 0.295 0.589 0.938 0.895 1.428s0.821 1.308 1.137 1.817c0.319 0.509 0.687 1.094 0.817 1.298s0.498 0.789 0.817 1.298c1.133 1.811 1.7 2.716 1.944 3.105 0.137 0.217 0.251 0.402 0.251 0.412 0 0.013-2.791 0.019-6.203 0.019h-6.203v-1.668l0.107 0.101c0.267 0.256 0.72 0.464 1.179 0.545 0.358 0.062 0.547 0.062 0.664 0 0.156-0.078 0.182-0.279 0.062-0.422-0.065-0.071-0.107-0.088-0.303-0.097-0.944-0.062-1.498-0.487-1.664-1.282-0.026-0.13-0.042-0.243-0.033-0.25 0.006-0.010 0.101 0.055 0.205 0.139 0.361 0.292 0.967 0.5 1.478 0.5 0.182 0 0.228-0.013 0.303-0.081 0.179-0.162 0.062-0.467-0.182-0.474-0.772-0.016-1.384-0.338-1.625-0.85-0.107-0.234-0.192-0.581-0.192-0.815v-0.159l0.192 0.195c0.329 0.337 0.889 0.659 1.143 0.659 0.169 0 0.29-0.159 0.261-0.357-0.013-0.091-0.13-0.182-0.306-0.237-0.407-0.13-0.808-0.493-1.029-0.941-0.146-0.295-0.215-0.578-0.247-1.012-0.020-0.24-0.036-0.302-0.098-0.363-0.107-0.107-0.332-0.104-0.436 0.007-0.065 0.068-0.078 0.13-0.101 0.412-0.029 0.425-0.072 0.597-0.228 0.922-0.16 0.338-0.414 0.597-0.729 0.75-0.124 0.058-0.261 0.107-0.303 0.107-0.114 0-0.267 0.169-0.267 0.292 0 0.127 0.153 0.292 0.27 0.292 0.228 0 0.765-0.269 1.039-0.519 0.117-0.104 0.221-0.185 0.231-0.175 0.026 0.029-0.010 0.396-0.059 0.597-0.173 0.694-0.674 1.084-1.514 1.168-0.394 0.042-0.414 0.049-0.475 0.165-0.065 0.127-0.033 0.266 0.075 0.354 0.261 0.204 1.374-0.084 1.827-0.47l0.137-0.12v0.094c0 0.308-0.221 0.782-0.466 1.003-0.28 0.25-0.765 0.435-1.156 0.435-0.094 0-0.221 0.019-0.28 0.045-0.212 0.088-0.225 0.389-0.020 0.5 0.107 0.058 0.518 0.029 0.863-0.055 0.306-0.078 0.739-0.286 0.925-0.448 0.153-0.127 0.173-0.11 0.153 0.12-0.006 0.081-0.013 0.428-0.016 0.769l-0.003 0.626h-5.015v-2.181l0.153 0.136c0.179 0.156 0.599 0.367 0.873 0.438 0.28 0.075 0.781 0.101 0.876 0.049 0.166-0.088 0.192-0.286 0.055-0.425-0.085-0.081-0.12-0.094-0.287-0.094-0.436-0.003-0.915-0.175-1.205-0.435-0.189-0.172-0.348-0.448-0.414-0.727-0.046-0.201-0.033-0.247 0.049-0.149 0.065 0.078 0.3 0.234 0.518 0.341 0.423 0.208 1.192 0.302 1.335 0.159 0.137-0.136 0.107-0.35-0.055-0.432-0.049-0.026-0.215-0.055-0.368-0.065-0.615-0.042-1.114-0.338-1.348-0.795-0.085-0.169-0.182-0.509-0.182-0.649 0-0.071 0.010-0.068 0.156 0.058 0.342 0.305 0.951 0.519 1.465 0.519 0.221 0 0.277-0.010 0.332-0.065 0.088-0.088 0.111-0.208 0.059-0.312-0.059-0.123-0.169-0.175-0.387-0.175-0.244 0-0.642-0.104-0.879-0.23-0.228-0.12-0.446-0.347-0.563-0.574-0.085-0.169-0.182-0.509-0.182-0.649 0-0.071 0.010-0.068 0.153 0.058 0.199 0.172 0.609 0.373 0.935 0.454 0.248 0.062 0.703 0.088 0.817 0.045 0.081-0.032 0.153-0.201 0.13-0.305-0.036-0.162-0.117-0.201-0.459-0.23-0.84-0.071-1.361-0.471-1.527-1.171-0.026-0.114-0.049-0.24-0.049-0.279 0-0.071 0.010-0.068 0.146 0.052 0.339 0.295 0.856 0.49 1.387 0.516 0.322 0.016 0.352 0.013 0.414-0.049 0.094-0.094 0.117-0.211 0.065-0.318-0.059-0.123-0.169-0.175-0.387-0.175-0.228 0-0.622-0.097-0.843-0.211-0.495-0.25-0.778-0.769-0.781-1.425v-0.224l0.254 0.243c0.42 0.409 1.045 0.763 1.407 0.795 0.163 0.016 0.277-0.055 0.313-0.201 0.042-0.162-0.046-0.247-0.401-0.393-0.43-0.172-0.703-0.35-0.983-0.646-0.355-0.373-0.589-0.941-0.589-1.428 0-0.165-0.065-0.321-0.147-0.354-0.127-0.049-0.296-0.019-0.374 0.062-0.062 0.068-0.078 0.13-0.098 0.38-0.026 0.341-0.068 0.506-0.182 0.766-0.247 0.558-0.768 1.003-1.469 1.256-0.124 0.045-0.241 0.107-0.261 0.136-0.072 0.094-0.052 0.282 0.039 0.367 0.068 0.065 0.101 0.071 0.244 0.055 0.195-0.023 0.684-0.247 0.98-0.448 0.114-0.075 0.306-0.237 0.43-0.36 0.12-0.12 0.228-0.221 0.241-0.221 0.033 0-0.023 0.535-0.075 0.737-0.101 0.393-0.339 0.691-0.69 0.879-0.241 0.127-0.638 0.234-0.876 0.234-0.189 0-0.348 0.062-0.381 0.146-0.046 0.12-0.020 0.266 0.062 0.341 0.075 0.068 0.098 0.071 0.397 0.055 0.528-0.029 0.918-0.159 1.299-0.432l0.241-0.172v0.107c0 0.305-0.247 0.792-0.505 0.993-0.29 0.23-0.752 0.389-1.123 0.389-0.179 0-0.339 0.062-0.371 0.146-0.042 0.117-0.020 0.266 0.055 0.334 0.065 0.058 0.114 0.071 0.313 0.071 0.495 0 0.996-0.159 1.39-0.441l0.241-0.172v0.107c0 0.315-0.267 0.831-0.527 1.016-0.319 0.224-0.739 0.367-1.101 0.367-0.179 0-0.339 0.062-0.371 0.146-0.042 0.117-0.020 0.266 0.055 0.334 0.065 0.062 0.114 0.071 0.335 0.071 0.479 0 1.016-0.178 1.407-0.467l0.202-0.149v0.11c0 0.182-0.124 0.519-0.264 0.73-0.254 0.38-0.817 0.649-1.358 0.652-0.186 0-0.345 0.062-0.378 0.146-0.042 0.117-0.020 0.266 0.055 0.334 0.065 0.062 0.114 0.071 0.335 0.071 0.488 0 1.078-0.198 1.446-0.49l0.166-0.13-0.023 0.123c-0.114 0.62-0.563 1.051-1.237 1.194-0.124 0.026-0.306 0.049-0.407 0.049-0.15 0-0.199 0.016-0.27 0.081-0.12 0.114-0.12 0.308 0.007 0.406 0.081 0.068 0.114 0.071 0.397 0.055 0.169-0.010 0.397-0.042 0.505-0.071 0.267-0.068 0.648-0.253 0.85-0.409 0.091-0.068 0.173-0.127 0.179-0.127 0.013 0-0.003 2.119-0.016 2.135-0.007 0.003-0.713 0.003-1.576 0l-1.566-0.010 0.436-0.698c0.355-0.561 0.44-0.72 0.44-0.814 0-0.243-0.254-0.393-0.469-0.276-0.14 0.075-1.299 1.924-1.316 2.1-0.016 0.149 0.033 0.24 0.156 0.305 0.085 0.042 1.387 0.049 11.703 0.042l11.612-0.010 0.088-0.088c0.173-0.172 0.146-0.247-0.378-1.081-0.462-0.737-1.114-1.775-2.084-3.326-0.274-0.438-0.642-1.022-0.817-1.298s-0.58-0.918-0.895-1.428c-6.438-10.28-7.343-11.708-7.447-11.744-0.117-0.042-0.147-0.042-0.238-0.006z"></path>
<path fill="#18333e" style="fill: var(--color3, #18333e)" d="M20.075 5.657c-0.060 0.058-0.831 0.946-1.563 1.812-0.203 0.238-0.377 0.463-0.39 0.495-0.044 0.129 0.038 0.261 0.266 0.418 0.124 0.087 0.222 0.164 0.222 0.177s-0.327 0.357-0.726 0.763c-0.396 0.405-0.742 0.772-0.764 0.814-0.076 0.148 0.022 0.373 0.174 0.389 0.193 0.023 0.212 0.006 1.103-0.894 0.485-0.489 0.904-0.933 0.929-0.981 0.098-0.187 0.010-0.309-0.431-0.605l-0.076-0.051 0.171-0.209c0.095-0.116 0.323-0.383 0.507-0.592 1.011-1.162 1.015-1.168 1.015-1.322 0-0.203-0.288-0.341-0.438-0.212z"></path>
<path fill="#18333e" style="fill: var(--color3, #18333e)" d="M7.38 20.397c-0.386 0.063-0.804 0.273-1.079 0.543-0.351 0.345-0.522 0.722-0.554 1.231-0.060 0.961 0.535 1.749 1.493 1.988 0.263 0.063 0.848 0.063 1.117-0.003 0.731-0.176 1.291-0.738 1.443-1.441 0.221-1.046-0.383-2.013-1.427-2.276-0.231-0.060-0.753-0.082-0.993-0.041zM8.209 21.179c0.626 0.22 0.93 1.002 0.642 1.642-0.399 0.879-1.715 0.876-2.123-0.003-0.082-0.176-0.092-0.229-0.089-0.512 0-0.408 0.076-0.606 0.313-0.851 0.259-0.261 0.563-0.37 0.949-0.336 0.104 0.009 0.244 0.035 0.307 0.060z"></path>
<path fill="#18333e" style="fill: var(--color3, #18333e)" d="M19.262 20.392l-0.418 0.013v2.282l-0.386-0.478c-0.21-0.26-0.622-0.773-0.917-1.143l-0.531-0.664h-0.738l0.016 1.868c0.009 1.030 0.016 1.884 0.016 1.903-0.003 0.019 0.154 0.032 0.405 0.032 0.226 0 0.408-0.006 0.408-0.016s0-0.501 0.003-1.091c0-0.594 0.013-1.095 0.025-1.117s0.367 0.392 0.932 1.094l0.914 1.13h0.7v-1.919c0-1.053-0.003-1.913-0.006-1.91-0.006 0.003-0.198 0.013-0.424 0.016z"></path>
<path fill="#18333e" style="fill: var(--color3, #18333e)" d="M20.923 20.747v0.371l1.199-0.019v1.553c0 1.356 0.006 1.55 0.047 1.55 0.025 0.003 0.221 0.003 0.436 0.003h0.385l0.009-1.55 0.006-1.553h1.199v-0.71l-3.282-0.016v0.371z"></path>
<path fill="#18333e" style="fill: var(--color3, #18333e)" d="M0.019 21.271c0.013 0.494 0.023 1.357 0.023 1.916v1.018h0.812l0.006-1.066c0-0.588 0.003-1.086 0-1.112-0.003-0.078 0.065 0.019 0.461 0.675 0.211 0.346 0.448 0.737 0.53 0.863l0.143 0.236h0.409l0.552-0.921 0.552-0.924 0.019 0.637c0.013 0.352 0.023 0.853 0.023 1.115v0.478l0.406 0.010c0.224 0.006 0.409 0 0.416-0.013 0.003-0.016 0.003-0.876-0.003-1.916l-0.006-1.89h-0.741l-0.448 0.75c-1.014 1.706-0.959 1.619-1.001 1.554-0.023-0.032-0.344-0.562-0.715-1.183l-0.676-1.121h-0.783l0.019 0.895z"></path>
<path fill="#18333e" style="fill: var(--color3, #18333e)" d="M11.214 21.62c0 0.947 0.013 1.3 0.045 1.468 0.102 0.495 0.374 0.871 0.767 1.062 0.304 0.148 0.498 0.191 0.888 0.191 0.757 0 1.252-0.267 1.527-0.831 0.176-0.36 0.192-0.511 0.192-1.89v-1.244h-0.86l-0.010 1.277c-0.010 1.257-0.010 1.283-0.083 1.445-0.16 0.356-0.409 0.498-0.818 0.472-0.377-0.026-0.578-0.178-0.709-0.538-0.057-0.152-0.061-0.261-0.051-1.412l0.010-1.244h-0.898v1.244z"></path>
<path fill="#18333e" style="fill: var(--color3, #18333e)" d="M26.318 20.645c-0.065 0.146-0.172 0.382-0.233 0.524-0.065 0.142-0.389 0.876-0.726 1.633s-0.609 1.378-0.606 1.384c0.003 0.003 0.207 0.010 0.454 0.013l0.447 0.006 0.331-0.821h1.783l0.165 0.407 0.165 0.404h0.392c0.217 0 0.431 0 0.473-0.003 0.071 0 0.042-0.071-0.512-1.319-0.324-0.724-0.707-1.581-0.846-1.905l-0.259-0.589-0.454-0.003h-0.454l-0.12 0.268zM27.258 22.161l0.227 0.543h-0.596c-0.327 0-0.596-0.006-0.596-0.013 0-0.013 0.386-0.948 0.535-1.297l0.055-0.126 0.075 0.175c0.039 0.097 0.175 0.42 0.302 0.718z"></path>
<path fill="#18333e" style="fill: var(--color3, #18333e)" d="M30.1 22.289l0.018 1.916 0.356-0.003c0.197-0.003 0.376-0.006 0.397-0.006 0.026 0 0.035-0.405 0.035-1.91v-1.91h-0.82l0.015 1.913z"></path>
<path fill="#18333e" style="fill: var(--color3, #18333e)" d="M32.547 22.283v1.906l0.359 0.003c0.199 0.003 0.398 0.003 0.444 0.006l0.082 0.003v-1.118c-0.003-0.617 0.010-1.128 0.023-1.134 0.013-0.010 0.45 0.494 0.969 1.118l0.946 1.131 0.734 0.006v-3.829h-0.881l-0.007 1.144-0.010 1.144-0.391-0.468c-0.215-0.259-0.473-0.569-0.571-0.688s-0.333-0.401-0.522-0.63c-0.189-0.226-0.356-0.433-0.369-0.456-0.020-0.036-0.117-0.045-0.414-0.045h-0.391v1.906z"></path>
<path fill="#18333e" style="fill: var(--color3, #18333e)" d="M17.823 26.55c-0.368 0.076-0.674 0.317-0.789 0.621-0.199 0.515 0 1.054 0.476 1.311 0.172 0.092 0.206 0.099 0.553 0.099s0.384-0.007 0.573-0.099l0.202-0.102 0.010-0.403 0.010-0.403h-0.307v0.664l-0.108 0.046c-0.428 0.172-0.917 0.017-1.109-0.353-0.169-0.324-0.101-0.687 0.172-0.928 0.304-0.267 0.725-0.297 1.062-0.069l0.125 0.083 0.088-0.089 0.091-0.086-0.115-0.096c-0.206-0.168-0.637-0.258-0.934-0.195z"></path>
<path fill="#18333e" style="fill: var(--color3, #18333e)" d="M21.526 26.548c-0.332 0.065-0.64 0.278-0.785 0.539-0.1 0.183-0.121 0.604-0.045 0.827 0.159 0.451 0.702 0.735 1.253 0.654 0.204-0.029 0.488-0.15 0.567-0.239 0.041-0.046 0.035-0.065-0.041-0.137l-0.087-0.082-0.138 0.085c-0.526 0.33-1.228 0.036-1.311-0.546-0.052-0.353 0.197-0.725 0.55-0.823 0.298-0.082 0.529-0.052 0.768 0.101l0.131 0.082 0.090-0.082 0.087-0.082-0.080-0.082c-0.17-0.173-0.64-0.278-0.959-0.216z"></path>
<path fill="#18333e" style="fill: var(--color3, #18333e)" d="M6.974 27.557v1.024l0.263-0.020 0.009-0.456 0.009-0.453h1.081v0.925h0.279v-2.048h-0.279v0.882l-1.084 0.013v-0.895h-0.279v1.027z"></path>
<path fill="#18333e" style="fill: var(--color3, #18333e)" d="M9.582 27.544l0.014 1.017 0.387 0.020v-2.051h-0.41l0.009 1.014z"></path>
<path fill="#18333e" style="fill: var(--color3, #18333e)" d="M10.81 27.547l0.010 1.014 0.282 0.020v-0.55l0.176-0.171c0.096-0.096 0.182-0.171 0.196-0.171 0.010 0 0.196 0.201 0.408 0.445l0.388 0.445h0.166c0.089 0 0.156-0.013 0.146-0.026-0.007-0.013-0.215-0.27-0.464-0.566l-0.447-0.537 0.431-0.448 0.434-0.448-0.162-0.010-0.159-0.013-0.554 0.573-0.554 0.57-0.003-0.57v-0.566h-0.298l0.007 1.011z"></path>
<path fill="#18333e" style="fill: var(--color3, #18333e)" d="M13.271 27.544l0.009 1.017 0.258 0.020v-2.051h-0.274l0.006 1.014z"></path>
<path fill="#18333e" style="fill: var(--color3, #18333e)" d="M14.502 27.544l0.010 1.017 0.285 0.020v-1.529l0.178 0.215c0.094 0.116 0.376 0.459 0.624 0.763 0.419 0.512 0.46 0.548 0.564 0.548h0.111v-2.048h-0.268v0.743c0 0.41-0.010 0.743-0.024 0.743-0.017 0-0.299-0.334-0.631-0.743-0.594-0.73-0.607-0.743-0.731-0.743h-0.124l0.007 1.014z"></path>
<path fill="#18333e" style="fill: var(--color3, #18333e)" d="M23.248 27.556v1.026h1.367v-0.265h-1.074v-1.787h-0.293v1.026z"></path>
<path fill="#18333e" style="fill: var(--color3, #18333e)" d="M25.299 27.233c0 0.789 0.025 0.925 0.198 1.113 0.141 0.155 0.327 0.231 0.563 0.235 0.399 0.007 0.619-0.112 0.764-0.416l0.094-0.198 0.009-0.72 0.013-0.717h-0.289v0.684c0 0.595-0.009 0.704-0.060 0.819-0.079 0.182-0.154 0.244-0.352 0.287-0.333 0.069-0.591-0.089-0.654-0.403-0.019-0.093-0.035-0.443-0.035-0.776v-0.611h-0.252v0.703z"></path>
<path fill="#18333e" style="fill: var(--color3, #18333e)" d="M27.897 27.556v1.026h0.491c0.709 0 0.959-0.066 1.086-0.287 0.080-0.135 0.086-0.383 0.015-0.528-0.046-0.102-0.197-0.241-0.259-0.241-0.018 0 0.015-0.049 0.071-0.109 0.17-0.181 0.182-0.482 0.031-0.66-0.163-0.188-0.228-0.204-0.855-0.214l-0.58-0.013v1.026zM28.977 26.82c0.142 0.063 0.185 0.129 0.185 0.284-0.003 0.241-0.167 0.323-0.648 0.323h-0.339v-0.66h0.339c0.241 0 0.373 0.017 0.463 0.053zM29.088 27.707c0.142 0.063 0.207 0.221 0.163 0.392-0.049 0.185-0.151 0.224-0.651 0.244l-0.426 0.017v-0.702h0.401c0.284 0 0.435 0.013 0.512 0.049z"></path>
<path fill="#18333e" style="fill: var(--color3, #18333e)" d="M14.754 31.6c-0.14 0.033-0.169 0.334-0.036 0.382 0.029 0.009 2.026 0.018 4.442 0.018h4.387l0.058-0.063c0.071-0.084 0.071-0.184-0.006-0.271l-0.062-0.072-4.364-0.003c-2.396-0.003-4.387 0-4.419 0.009z"></path>
</symbol>
</defs>
</svg>
